<svg width="1200" height="400" viewBox="0 0 1200 400" xmlns="http://www.w3.org/2000/svg">
  <defs>
    <linearGradient id="gradLine" x1="0%" y1="0%" x2="100%" y2="0%">
      <stop offset="0%" stop-color="#60a5fa"/>
      <stop offset="50%" stop-color="#a78bfa"/>
      <stop offset="100%" stop-color="#ec4899"/>
    </linearGradient>
    <linearGradient id="gradNode" x1="0%" y1="0%" x2="100%" y2="100%">
      <stop offset="0%" stop-color="#60a5fa"/>
      <stop offset="100%" stop-color="#a78bfa"/>
    </linearGradient>
    <filter id="glow" x="-50%" y="-50%" width="200%" height="200%">
      <feGaussianBlur stdDeviation="12" result="blur"/>
      <feMerge>
        <feMergeNode in="blur"/>
        <feMergeNode in="SourceGraphic"/>
      </feMerge>
    </filter>
  </defs>
  <rect x="0" y="0" width="1200" height="400" fill="#0b1220"/>
  <g opacity="0.12">
    <rect x="0" y="0" width="1200" height="400" fill="url(#gradLine)"/>
  </g>
  <g opacity="0.16">
    <path d="M0 60 H1200 M0 120 H1200 M0 180 H1200 M0 240 H1200 M0 300 H1200" stroke="#334155" stroke-width="1"/>
    <path d="M80 0 V400 M240 0 V400 M400 0 V400 M560 0 V400 M720 0 V400 M880 0 V400 M1040 0 V400" stroke="#334155" stroke-width="1"/>
  </g>
  <g>
    <path d="M80 200 H1120" stroke="url(#gradLine)" stroke-width="4" stroke-linecap="round" stroke-dasharray="10 10"/>
  </g>
  <g filter="url(#glow)">
    <circle cx="160" cy="200" r="22" fill="url(#gradNode)" opacity="0.15"/>
    <circle cx="360" cy="200" r="22" fill="url(#gradNode)" opacity="0.15"/>
    <circle cx="560" cy="200" r="22" fill="url(#gradNode)" opacity="0.15"/>
    <circle cx="760" cy="200" r="22" fill="url(#gradNode)" opacity="0.15"/>
    <circle cx="960" cy="200" r="22" fill="url(#gradNode)" opacity="0.15"/>
  </g>
  <g>
    <circle cx="160" cy="200" r="14" fill="#0b1220" stroke="url(#gradNode)" stroke-width="3"/>
    <circle cx="360" cy="200" r="14" fill="#0b1220" stroke="url(#gradNode)" stroke-width="3"/>
    <circle cx="560" cy="200" r="14" fill="#0b1220" stroke="url(#gradNode)" stroke-width="3"/>
    <circle cx="760" cy="200" r="14" fill="#0b1220" stroke="url(#gradNode)" stroke-width="3"/>
    <circle cx="960" cy="200" r="14" fill="#0b1220" stroke="url(#gradNode)" stroke-width="3"/>
    <circle cx="160" cy="200" r="4" fill="#ffffff" opacity="0.9"/>
    <circle cx="360" cy="200" r="4" fill="#ffffff" opacity="0.9"/>
    <circle cx="560" cy="200" r="4" fill="#ffffff" opacity="0.9"/>
    <circle cx="760" cy="200" r="4" fill="#ffffff" opacity="0.9"/>
    <circle cx="960" cy="200" r="4" fill="#ffffff" opacity="0.9"/>
  </g>
  <g opacity="0.25">
    <ellipse cx="320" cy="90" rx="120" ry="38" fill="#60a5fa"/>
    <ellipse cx="860" cy="320" rx="140" ry="44" fill="#a78bfa"/>
  </g>
</svg>
